<svg xmlns="http://www.w3.org/2000/svg" width="54.832" height="46.999" viewBox="0 0 54.832 46.999">
  <path id="Icon_ionic-ios-speedometer" data-name="Icon ionic-ios-speedometer" d="M29.666,4.5A27.407,27.407,0,0,0,9.141,50.079c.135.147.257.294.392.428a3.083,3.083,0,0,0,4.541-.012,21.189,21.189,0,0,1,31.186,0,3.083,3.083,0,0,0,4.541.012l.392-.428A27.407,27.407,0,0,0,29.666,4.5Zm-1.713,5.618a1.713,1.713,0,1,1,3.427,0v4.406a1.713,1.713,0,0,1-3.427,0Zm-15.666,23.5H7.88a1.713,1.713,0,0,1,0-3.427h4.406a1.713,1.713,0,0,1,0,3.427Zm6.3-12.79h0a1.729,1.729,0,0,1-2.423,0l-3.121-3.109a1.729,1.729,0,0,1,0-2.423h0a1.729,1.729,0,0,1,2.423,0l3.121,3.121A1.714,1.714,0,0,1,18.589,20.827ZM38.246,25.05,32.432,34.29a3.794,3.794,0,0,1-.857.857,3.685,3.685,0,1,1-4.284-6l9.241-5.814a1.252,1.252,0,0,1,1.432,0A1.231,1.231,0,0,1,38.246,25.05Zm4.92-4.223a1.729,1.729,0,0,1-2.423,0h0a1.729,1.729,0,0,1,0-2.423l3.121-3.121a1.729,1.729,0,0,1,2.423,0h0a1.729,1.729,0,0,1,0,2.423Zm8.286,12.79H47.046a1.713,1.713,0,0,1,0-3.427h4.406a1.713,1.713,0,1,1,0,3.427Z" transform="translate(-2.25 -4.5)" fill="#fff"/>
</svg>
