<svg xmlns="http://www.w3.org/2000/svg" width="76.843" height="38.427" viewBox="0 0 76.843 38.427">
  <path id="Icon_awesome-gamepad" data-name="Icon awesome-gamepad" d="M57.641,6.75H19.214A19.214,19.214,0,1,0,32.927,39.413H43.915A19.211,19.211,0,1,0,57.641,6.75Zm-26.9,21.615A1.445,1.445,0,0,1,29.3,29.806H23.056v6.244a1.445,1.445,0,0,1-1.441,1.441h-4.8a1.445,1.445,0,0,1-1.441-1.441V29.806H9.127a1.445,1.445,0,0,1-1.441-1.441v-4.8a1.445,1.445,0,0,1,1.441-1.441h6.244V15.877a1.445,1.445,0,0,1,1.441-1.441h4.8a1.445,1.445,0,0,1,1.441,1.441v6.244H29.3a1.445,1.445,0,0,1,1.441,1.441Zm22.1,8.166A5.764,5.764,0,1,1,58.6,30.767,5.766,5.766,0,0,1,52.838,36.531Zm9.607-9.607a5.764,5.764,0,1,1,5.764-5.764A5.766,5.766,0,0,1,62.445,26.924Z" transform="translate(0 -6.75)" fill="#fff"/>
</svg>
