<svg xmlns="http://www.w3.org/2000/svg" width="51.199" height="51.199" viewBox="0 0 51.199 51.199">
  <path id="Icon_awesome-globe-africa" data-name="Icon awesome-globe-africa" d="M25.6.563a25.6,25.6,0,1,0,25.6,25.6A25.6,25.6,0,0,0,25.6.563ZM42.115,22.807v.715a1.6,1.6,0,0,1-.885,1.431l-1.589.795a1.6,1.6,0,0,1-1.6-.1l-1.88-1.253a1.6,1.6,0,0,0-1.394-.187l-.274.091a1.6,1.6,0,0,0-.825,2.405l1.367,2.05a1.6,1.6,0,0,0,1.331.712h.847a1.6,1.6,0,0,1,1.6,1.6v1.171a1.6,1.6,0,0,1-.32.96l-1.934,2.579a1.607,1.607,0,0,0-.292.664L35.822,38.8a1.6,1.6,0,0,1-.491.884,16.475,16.475,0,0,0-2.581,3.01L31.4,44.707a2.864,2.864,0,0,1-4.945-.308,8.144,8.144,0,0,1-.86-3.643V37.671a1.6,1.6,0,0,0-1.6-1.6H21.328a5.639,5.639,0,0,1-5.639-5.639V28.981a5.641,5.641,0,0,1,2.255-4.511l2.847-2.136a5.643,5.643,0,0,1,3.384-1.128h.092a5.627,5.627,0,0,1,2.522.6l1.519.76a1.6,1.6,0,0,0,1.221.087l4.884-1.628a1.6,1.6,0,0,0-.506-3.117H32.865a1.6,1.6,0,0,1-1.131-.469l-.714-.714a1.6,1.6,0,0,0-1.131-.469h-9.3a1.6,1.6,0,0,1-1.6-1.6V14.2A1.6,1.6,0,0,1,20.2,12.645l1.492-.373a1.6,1.6,0,0,0,.943-.665l.834-1.25A1.6,1.6,0,0,1,24.8,9.645h2.5a1.6,1.6,0,0,0,1.6-1.6V5.805a20.673,20.673,0,0,1,16.714,15.4h-1.9A1.6,1.6,0,0,0,42.115,22.807Z" transform="translate(0 -0.563)" fill="#fff"/>
</svg>
